<!DOCTYPE svg PUBLIC "-//W3C//DTD SVG 1.1//EN" "http://www.w3.org/Graphics/SVG/1.1/DTD/svg11.dtd">

<!-- Uploaded to: SVG Repo, www.svgrepo.com, Transformed by: SVG Repo Mixer Tools -->
<svg width="20px" height="20px" viewBox="-11.04 -11.04 70.08 70.08" xmlns="http://www.w3.org/2000/svg" fill="#ffffff">

<g id="SVGRepo_bgCarrier" stroke-width="0">

<rect x="-11.04" y="-11.04" width="70.08" height="70.08" rx="35.04" fill="#800080" strokewidth="0"/>

</g>

<g id="SVGRepo_tracerCarrier" stroke-linecap="round" stroke-linejoin="round"/>

<g id="SVGRepo_iconCarrier"> <title>law-building-solid</title> <g id="Layer_2" data-name="Layer 2"> <g id="invisible_box" data-name="invisible box"> <rect width="48" height="48" fill="none"/> </g> <g id="Q3_icons" data-name="Q3 icons"> <g> <rect x="5" y="36" width="38" height="4"/> <path d="M44,42H4a2,2,0,0,0-2,2v2H46V44A2,2,0,0,0,44,42Z"/> <rect x="10" y="18" width="4" height="16"/> <rect x="22" y="18" width="4" height="16"/> <rect x="34" y="18" width="4" height="16"/> <path d="M44.9,11.4,24,2,3.1,11.4A2.1,2.1,0,0,0,2,13.2V14a2,2,0,0,0,2,2H44a2,2,0,0,0,2-2v-.8A2.1,2.1,0,0,0,44.9,11.4Z"/> </g> </g> </g> </g>

</svg>