<!DOCTYPE svg PUBLIC "-//W3C//DTD SVG 1.1//EN" "http://www.w3.org/Graphics/SVG/1.1/DTD/svg11.dtd">

<!-- Uploaded to: SVG Repo, www.svgrepo.com, Transformed by: SVG Repo Mixer Tools -->
<svg fill="#a04809" height="64px" width="64px" version="1.1" id="Layer_1" xmlns="http://www.w3.org/2000/svg" xmlns:xlink="http://www.w3.org/1999/xlink" viewBox="0 0 512 512" xml:space="preserve">

<g id="SVGRepo_bgCarrier" stroke-width="0"/>

<g id="SVGRepo_tracerCarrier" stroke-linecap="round" stroke-linejoin="round"/>

<g id="SVGRepo_iconCarrier"> <g> <g> <g> <path d="M106.667,149.312h170.667c11.782,0,21.333-9.551,21.333-21.333c0-11.782-9.551-21.333-21.333-21.333H106.667 c-11.782,0-21.333,9.551-21.333,21.333C85.333,139.761,94.885,149.312,106.667,149.312z"/> <path d="M106.667,234.645h128c11.782,0,21.333-9.551,21.333-21.333c0-11.782-9.551-21.333-21.333-21.333h-128 c-11.782,0-21.333,9.551-21.333,21.333C85.333,225.094,94.885,234.645,106.667,234.645z"/> <path d="M106.667,319.979H192c11.782,0,21.333-9.551,21.333-21.333c0-11.782-9.551-21.333-21.333-21.333h-85.333 c-11.782,0-21.333,9.551-21.333,21.333C85.333,310.427,94.885,319.979,106.667,319.979z"/> <path d="M490.667,21.312H21.333C9.551,21.312,0,30.863,0,42.645v341.333c0,11.782,9.551,21.333,21.333,21.333h277.333v64 c0,19.006,22.979,28.524,36.418,15.085l27.582-27.582l27.582,27.582c13.439,13.439,36.418,3.921,36.418-15.085v-64h64 c11.782,0,21.333-9.551,21.333-21.333V42.645C512,30.863,502.449,21.312,490.667,21.312z M320,255.979 c0-23.567,19.099-42.667,42.667-42.667s42.667,19.099,42.667,42.667c0,11.669-4.687,22.237-12.275,29.939 c-0.681,0.486-1.352,1.005-2,1.588c-6.961,6.268-15.408,10.087-24.444,10.951c-0.111,0.01-0.223,0.016-0.335,0.025 c-0.524,0.046-1.049,0.086-1.577,0.112c-0.675,0.032-1.353,0.051-2.036,0.051s-1.361-0.02-2.036-0.051 c-0.528-0.026-1.053-0.066-1.577-0.112c-0.111-0.009-0.224-0.015-0.335-0.025c-9.036-0.864-17.483-4.683-24.444-10.951 c-0.648-0.583-1.319-1.102-2-1.588C324.687,278.216,320,267.647,320,255.979z M384,417.809l-6.248-6.248 c-8.331-8.331-21.839-8.331-30.17,0l-6.248,6.248v-33.83v-45.355c3.255,0.838,6.594,1.464,9.988,1.915 c0.413,0.056,0.826,0.108,1.24,0.158c0.628,0.074,1.255,0.153,1.887,0.214c1.108,0.109,2.222,0.189,3.338,0.254 c0.356,0.02,0.713,0.036,1.07,0.052c1.266,0.057,2.534,0.096,3.81,0.096s2.544-0.039,3.81-0.096 c0.357-0.016,0.714-0.032,1.07-0.052c1.117-0.065,2.231-0.145,3.338-0.254c0.632-0.06,1.259-0.14,1.887-0.214 c0.414-0.05,0.828-0.101,1.24-0.158c3.394-0.451,6.732-1.077,9.988-1.915v45.355V417.809z M469.333,362.645h-42.667v-50.252 c13.268-15.04,21.333-34.78,21.333-56.415c0-47.131-38.202-85.333-85.333-85.333s-85.333,38.202-85.333,85.333 c0,21.635,8.065,41.375,21.333,56.415v50.252h-256V63.979h426.667V362.645z"/> </g> </g> </g> </g>

</svg>